<?xml version="1.0" encoding="utf-8"?>
<!-- Generator: Adobe Illustrator 22.0.1, SVG Export Plug-In . SVG Version: 6.00 Build 0)  -->
<svg version="1.1" id="Слой_1" xmlns="http://www.w3.org/2000/svg" xmlns:xlink="http://www.w3.org/1999/xlink" x="0px" y="0px"
	 viewBox="0 0 1024 1024" style="enable-background:new 0 0 1024 1024;" xml:space="preserve">
<style type="text/css">
	.st0{fill:#3F8AE0;}
	.st1{fill:#FFFFFF;}
</style>
<g>
	<path class="st0" d="M1023.6,512.2c0,72.1,7,147.4-5.9,218.7c-13,71.3-45.6,138.6-97.2,190c-52.9,52.8-121.6,85.5-195,98
		c-69.7,11.9-143.3,5.1-213.7,5.1c-72.1,0-147.4,7-218.7-5.9c-71.3-13-138.6-45.6-190-97.2c-52.8-52.9-85.5-121.6-98-195
		C-6.8,656.2,0,582.6,0,512.2c0-70.4-6.8-144,5.1-213.7c12.5-73.3,45.3-142.1,98-195c51.4-51.6,118.7-84.2,190-97.2
		c71.3-13,146.6-6,218.7-5.9c70.4,0,144-6.8,213.7,5.1c73.3,12.5,142.1,45.3,195,98c51.6,51.4,84.2,118.7,97.2,190
		C1030.7,364.7,1023.6,440.1,1023.6,512.2z"/>
</g>
<path class="st1" d="M658.6,535.6c-3.4-14.6,0,0-14.7-39.8c-10.3-27.7-106.9,10.6-143.8,16.8c-121.5,20.5-204.3,54.2-217.5,17.5
	c-14.7-40.8,31.5-85.4,106.9-191.6c94-132.4,167.5-130.9,110-184.3c-75-69.6-85.1-4.1-190.4,126.8
	C145.8,484.2,152.4,525.3,190.8,591.8c42.7,73.9,197.5,38.4,267.4,21.8C570.6,586.8,671.1,588.6,658.6,535.6z"/>
<path class="st1" d="M869.8,640.8c12.6,38.2,6.6,27.4,10.7,56.5c8.1,57.7-95.7,76.5-191.5,100.9c-102.5,26.1-180.3,44.2-215.1,15.1
	c-15.3-12.8-31.1-55.8-36.9-196.6c-7.6-183.5-26.9-226.8,48.6-229.3c31-1,6,1.7,31-1.8c32.1-4.5,4.2,58.4,13.8,206.5
	c4.6,71.3,6.9,130.6,34.1,142.2c42.5,18.1,100.5-27.6,138.4-44C781.5,656.5,860.3,611.9,869.8,640.8z"/>
</svg>
